<?xml version="1.0" encoding="iso-8859-1"?>
<!-- Generator: Adobe Illustrator 19.0.0, SVG Export Plug-In . SVG Version: 6.00 Build 0)  -->
<svg version="1.1" id="Capa_1" xmlns="http://www.w3.org/2000/svg" xmlns:xlink="http://www.w3.org/1999/xlink" x="0px" y="0px"
	 viewBox="0 0 512 512" style="enable-background:new 0 0 512 512;" xml:space="preserve">
<path id="SVGCleanerId_0" style="fill:#FCA500;" d="M408.079,7.604c-53.194,0-96.317,43.123-96.317,96.317
	s43.123,96.317,96.317,96.317s96.317-43.123,96.317-96.317S461.273,7.604,408.079,7.604z M374.622,153.093
	c-9.799,0-17.743-7.944-17.743-17.743s7.944-17.743,17.743-17.743s17.743,7.944,17.743,17.743
	C392.364,145.149,384.421,153.093,374.622,153.093z M374.622,90.234c-9.799,0-17.743-7.944-17.743-17.743
	s7.944-17.743,17.743-17.743s17.743,7.944,17.743,17.743S384.421,90.234,374.622,90.234z M441.537,153.093
	c-9.799,0-17.743-7.944-17.743-17.743s7.944-17.743,17.743-17.743s17.743,7.944,17.743,17.743
	C459.279,145.149,451.336,153.093,441.537,153.093z M441.537,90.234c-9.799,0-17.743-7.944-17.743-17.743
	s7.944-17.743,17.743-17.743s17.743,7.944,17.743,17.743S451.336,90.234,441.537,90.234z"/>
<g>
	<path id="SVGCleanerId_0_1_" style="fill:#FCA500;" d="M408.079,7.604c-53.194,0-96.317,43.123-96.317,96.317
		s43.123,96.317,96.317,96.317s96.317-43.123,96.317-96.317S461.273,7.604,408.079,7.604z M374.622,153.093
		c-9.799,0-17.743-7.944-17.743-17.743s7.944-17.743,17.743-17.743s17.743,7.944,17.743,17.743
		C392.364,145.149,384.421,153.093,374.622,153.093z M374.622,90.234c-9.799,0-17.743-7.944-17.743-17.743
		s7.944-17.743,17.743-17.743s17.743,7.944,17.743,17.743S384.421,90.234,374.622,90.234z M441.537,153.093
		c-9.799,0-17.743-7.944-17.743-17.743s7.944-17.743,17.743-17.743s17.743,7.944,17.743,17.743
		C459.279,145.149,451.336,153.093,441.537,153.093z M441.537,90.234c-9.799,0-17.743-7.944-17.743-17.743
		s7.944-17.743,17.743-17.743s17.743,7.944,17.743,17.743S451.336,90.234,441.537,90.234z"/>
</g>
<path style="fill:#FCA500;" d="M103.921,32.95c-53.194,0-96.317,43.123-96.317,96.317s43.123,96.317,96.317,96.317
	s96.317-43.123,96.317-96.317S157.115,32.95,103.921,32.95z M70.463,178.44c-9.799,0-17.743-7.944-17.743-17.743
	s7.944-17.743,17.743-17.743s17.743,7.944,17.743,17.743S80.262,178.44,70.463,178.44z M70.463,115.58
	c-9.799,0-17.743-7.944-17.743-17.743s7.944-17.743,17.743-17.743s17.743,7.944,17.743,17.743S80.262,115.58,70.463,115.58z
	 M137.378,178.44c-9.799,0-17.743-7.944-17.743-17.743s7.944-17.743,17.743-17.743c9.799,0,17.743,7.944,17.743,17.743
	S147.177,178.44,137.378,178.44z M137.378,115.58c-9.799,0-17.743-7.944-17.743-17.743s7.944-17.743,17.743-17.743
	c9.799,0,17.743,7.944,17.743,17.743S147.177,115.58,137.378,115.58z"/>
<path style="fill:#6DCEAD;" d="M401.996,474.994H110.004l23.826-31.43V291.485c0-16.8,13.616-30.416,30.416-30.416h183.509
	c16.8,0,30.416,13.616,30.416,30.416v152.079L401.996,474.994z"/>
<path style="fill:#FFFFFF;" d="M167.287,383.747h-15.208v-15.208h15.208V383.747z M167.287,353.331h-15.208v-68.943h15.208V353.331z
	"/>
<polygon style="fill:#FF61CD;" points="444.578,345.22 414.669,355.358 327.477,355.358 327.477,403.01 414.669,403.01 
	444.578,413.149 465.869,413.149 465.869,345.22 "/>
<polygon style="fill:#CC1CC0;" points="444.578,392.871 414.669,382.733 327.477,382.733 327.477,403.01 414.669,403.01 
	444.578,413.149 465.869,413.149 465.869,392.871 "/>
<rect x="110.004" y="474.994" style="fill:#FF61CD;" width="291.992" height="29.402"/>
<path style="fill:#BA7005;" d="M408.079,179.96c-49.769,0-90.719-37.75-95.787-86.178c-0.349,3.333-0.53,6.714-0.53,10.139
	c0,53.194,43.123,96.317,96.317,96.317s96.317-43.123,96.317-96.317c0-3.425-0.181-6.806-0.53-10.139
	C498.799,142.21,457.849,179.96,408.079,179.96z"/>
<path style="fill:#D9CCBC;" d="M116.932,224.706l17.801,59.41c2.936-11.796,12.755-20.87,24.948-22.705l-13.635-45.508
	C137.039,220.292,127.245,223.313,116.932,224.706z"/>
<path style="fill:#C0AB91;" d="M126.735,257.42l7.999,26.695c2.936-11.796,12.755-20.87,24.948-22.705l-5.854-19.538
	C143.2,244.102,133.784,249.665,126.735,257.42z"/>
<path style="fill:#BAF038;" d="M184.523,428.356V326.97c0-8.399,6.809-15.208,15.208-15.208h97.331v131.802h-97.331
	C191.332,443.564,184.523,436.755,184.523,428.356z"/>
<path style="fill:#7CE538;" d="M184.523,408.079v20.277c0,8.399,6.809,15.208,15.208,15.208h97.331v-20.277h-97.331
	C191.332,423.287,184.523,416.478,184.523,408.079z"/>
<path style="fill:#D9CCBC;" d="M297.061,433.426V324.943l0,0c16.799,0,30.416,13.617,30.416,30.416v47.651
	C327.477,419.809,313.86,433.426,297.061,433.426L297.061,433.426z"/>
<path style="fill:#C0AB91;" d="M297.061,413.149v20.277c16.799,0,30.416-13.617,30.416-30.416v-20.277
	C327.477,399.531,313.86,413.149,297.061,413.149z"/>
<rect x="444.578" y="345.22" style="fill:#BAF038;" width="21.291" height="67.929"/>
<rect x="444.578" y="392.871" style="fill:#7CE538;" width="21.291" height="20.277"/>
<path style="fill:#5FB2B2;" d="M293.837,261.069l-42.349,42.805c-2.94,2.96-6.793,4.451-10.635,4.451
	c-3.853,0-7.705-1.49-10.646-4.451c-5.678-5.749-5.85-14.924-0.547-20.896c0.182,0.203,0.355,0.416,0.547,0.618
	c5.88,5.931,15.401,5.931,21.281,0l22.285-22.528L293.837,261.069L293.837,261.069z"/>
<path style="fill:#D9CCBC;" d="M329.732,161.488l-99.525,100.597c-5.875,5.939-5.875,15.568,0,21.507l0,0
	c5.875,5.939,15.402,5.939,21.278,0l99.818-100.894C343.053,176.821,335.766,169.656,329.732,161.488z"/>
<path style="fill:#5FB2B2;" d="M378.17,443.564h-50.122c5.957-4.692,11.228-11.27,15.144-20.277h34.471V403.01h-50.186
	c0,16.799-13.617,30.416-30.416,30.416v10.139H133.83l-23.826,31.43h291.992L378.17,443.564z"/>
<path style="fill:#BA7005;" d="M103.921,205.307c-49.769,0-90.719-37.75-95.787-86.178c-0.349,3.333-0.53,6.714-0.53,10.139
	c0,53.194,43.123,96.317,96.317,96.317s96.317-43.123,96.317-96.317c0-3.425-0.181-6.806-0.53-10.139
	C194.64,167.557,153.69,205.307,103.921,205.307z"/>
<path d="M408.079,207.842c57.302,0,103.921-46.618,103.921-103.921S465.382,0,408.079,0c-25.951,0-49.71,9.562-67.941,25.347
	H103.921C46.618,25.347,0,71.965,0,129.267c0,31.13,13.762,59.102,35.518,78.165l-0.301,0.144l91.009,190.108v43.324l-23.826,31.43
	V512h307.2v-39.562l-23.826-31.43v-30.395h27.641l29.909,10.139h30.149v-83.137h-30.148l-29.909,10.139h-27.642v-56.269
	c0-19.788-15.196-36.084-34.53-37.854l46.32-46.319C401.023,207.661,404.531,207.842,408.079,207.842z M408.079,15.208
	c48.917,0,88.713,39.796,88.713,88.713s-39.796,88.713-88.713,88.713s-88.713-39.796-88.713-88.713S359.162,15.208,408.079,15.208z
	 M246.08,278.244c-1.403,1.417-3.262,2.198-5.235,2.198c-1.972,0-3.83-0.781-5.233-2.198c-2.948-2.981-2.948-7.831,0-10.812
	l93.546-94.553c3.316,3.775,6.898,7.299,10.723,10.551L246.08,278.244z M325.773,40.554c-13.544,17.552-21.615,39.532-21.615,63.366
	c0,20.609,6.03,39.836,16.419,56.009l-92.539,93.536h-62.8l-10.124-33.79c31.459-17.884,52.727-51.707,52.727-90.408
	c0-37.509-19.977-70.438-49.849-88.713H325.773z M127.065,230.587c0.959-0.219,1.914-0.449,2.863-0.694
	c0.534-0.138,1.066-0.287,1.598-0.434c0.452-0.125,0.903-0.25,1.352-0.381c0.638-0.185,1.273-0.372,1.907-0.569
	c0.01-0.003,0.019-0.006,0.029-0.009c1.587-0.494,3.16-1.03,4.722-1.6c0.043-0.015,0.085-0.03,0.127-0.047
	c0.518-0.19,1.04-0.367,1.555-0.566l8.947,29.859c-5.029,1.991-9.525,5.016-13.229,8.836l-10.277-34.299
	C126.798,230.654,126.93,230.618,127.065,230.587z M15.208,129.267c0-48.917,39.796-88.713,88.713-88.713
	s88.713,39.796,88.713,88.713c0,40.359-27.092,74.506-64.044,85.219c-0.389,0.113-0.78,0.221-1.171,0.329
	c-0.654,0.179-1.311,0.353-1.971,0.518c-0.671,0.167-1.343,0.329-2.019,0.481c-0.365,0.082-0.731,0.162-1.098,0.239
	c-0.94,0.198-1.882,0.387-2.83,0.556c-0.129,0.023-0.259,0.042-0.387,0.064c-0.975,0.168-1.955,0.32-2.938,0.456
	c-4.007,0.558-8.098,0.852-12.256,0.852C55.004,217.98,15.208,178.184,15.208,129.267z M59.574,223.237
	c13.458,6.376,28.492,9.951,44.346,9.951c2.534,0,5.045-0.095,7.533-0.275l15.437,51.521c-0.431,2.286-0.666,4.64-0.666,7.05v70.979
	L59.574,223.237z M117.608,496.792v-14.194h276.784v14.194H117.608z M445.831,352.824h12.434v52.721h-12.434l-23.558-7.986V360.81
	L445.831,352.824z M407.065,395.406h-71.984v-32.444h71.984V395.406z M370.566,291.485v56.269h-36.251
	c-3.031-14.875-14.775-26.619-29.65-29.65v-13.946H199.731c-12.578,0-22.812,10.233-22.812,22.812v101.386
	c0,12.579,10.234,22.812,22.812,22.812h104.935v-10.904c14.875-3.031,26.619-14.775,29.65-29.65h36.251v35.506l16.123,21.27H125.31
	l16.123-21.27V291.485c0-1.925,0.242-3.795,0.693-5.581c0.12-0.478,0.259-0.947,0.408-1.41c0.054-0.167,0.112-0.333,0.168-0.498
	c0.095-0.274,0.198-0.543,0.302-0.813c2.375-6.054,7.26-10.857,13.374-13.11c0.062-0.022,0.125-0.043,0.187-0.065
	c0.473-0.17,0.956-0.321,1.444-0.46c0.268-0.075,0.534-0.149,0.806-0.215c0.189-0.047,0.378-0.09,0.569-0.132
	c0.464-0.1,0.931-0.194,1.404-0.265c1.127-0.172,2.282-0.262,3.457-0.262h54.353c-1.302,7.127,0.76,14.766,6.203,20.267
	c4.282,4.327,9.979,6.711,16.043,6.711c6.065,0,11.764-2.384,16.045-6.711l20.052-20.268h70.812
	C360.332,268.673,370.566,278.906,370.566,291.485z M199.731,435.96c-4.193,0-7.604-3.411-7.604-7.604V326.97
	c0-4.193,3.411-7.604,7.604-7.604h89.727V435.96H199.731z M304.665,333.849c8.851,3.138,15.208,11.596,15.208,21.509v47.651
	c0,9.914-6.357,18.371-15.208,21.509V333.849z M329.903,253.465h-37.915l60.884-61.54c8.188,5.155,17.139,9.204,26.647,11.925
	L329.903,253.465z"/>
<path d="M441.537,97.838c13.976,0,25.347-11.37,25.347-25.347s-11.37-25.347-25.347-25.347s-25.347,11.37-25.347,25.347
	S427.561,97.838,441.537,97.838z M441.537,62.352c5.59,0,10.139,4.548,10.139,10.139s-4.548,10.139-10.139,10.139
	c-5.59,0-10.139-4.548-10.139-10.139S435.946,62.352,441.537,62.352z"/>
<path d="M374.622,97.838c13.976,0,25.347-11.37,25.347-25.347s-11.37-25.347-25.347-25.347s-25.347,11.37-25.347,25.347
	S360.646,97.838,374.622,97.838z M374.622,62.352c5.59,0,10.139,4.548,10.139,10.139s-4.548,10.139-10.139,10.139
	c-5.59,0-10.139-4.548-10.139-10.139S369.031,62.352,374.622,62.352z"/>
<path d="M441.537,160.697c13.976,0,25.347-11.37,25.347-25.347s-11.37-25.347-25.347-25.347s-25.347,11.37-25.347,25.347
	S427.561,160.697,441.537,160.697z M441.537,125.212c5.59,0,10.139,4.548,10.139,10.139c0,5.59-4.548,10.139-10.139,10.139
	c-5.59,0-10.139-4.548-10.139-10.139S435.946,125.212,441.537,125.212z"/>
<path d="M374.622,160.697c13.976,0,25.347-11.37,25.347-25.347s-11.37-25.347-25.347-25.347s-25.347,11.37-25.347,25.347
	S360.646,160.697,374.622,160.697z M374.622,125.212c5.59,0,10.139,4.548,10.139,10.139c0,5.59-4.548,10.139-10.139,10.139
	c-5.59,0-10.139-4.548-10.139-10.139S369.031,125.212,374.622,125.212z"/>
<rect x="400.475" y="96.317" width="15.208" height="15.208"/>
<path d="M137.378,123.184c13.976,0,25.347-11.37,25.347-25.347s-11.37-25.347-25.347-25.347s-25.347,11.37-25.347,25.347
	S123.402,123.184,137.378,123.184z M137.378,87.699c5.59,0,10.139,4.548,10.139,10.139s-4.548,10.139-10.139,10.139
	s-10.139-4.548-10.139-10.139S131.788,87.699,137.378,87.699z"/>
<path d="M70.463,123.184c13.976,0,25.347-11.37,25.347-25.347s-11.37-25.347-25.347-25.347s-25.347,11.37-25.347,25.347
	S56.487,123.184,70.463,123.184z M70.463,87.699c5.59,0,10.139,4.548,10.139,10.139s-4.548,10.139-10.139,10.139
	s-10.139-4.548-10.139-10.139S64.873,87.699,70.463,87.699z"/>
<path d="M137.378,186.044c13.976,0,25.347-11.37,25.347-25.347c0-13.976-11.37-25.347-25.347-25.347s-25.347,11.37-25.347,25.347
	C112.032,174.673,123.402,186.044,137.378,186.044z M137.378,150.558c5.59,0,10.139,4.548,10.139,10.139
	s-4.548,10.139-10.139,10.139s-10.139-4.548-10.139-10.139S131.788,150.558,137.378,150.558z"/>
<path d="M70.463,186.044c13.976,0,25.347-11.37,25.347-25.347c0-13.976-11.37-25.347-25.347-25.347s-25.347,11.37-25.347,25.347
	C45.117,174.673,56.487,186.044,70.463,186.044z M70.463,150.558c5.59,0,10.139,4.548,10.139,10.139s-4.548,10.139-10.139,10.139
	s-10.139-4.548-10.139-10.139S64.873,150.558,70.463,150.558z"/>
<rect x="96.317" y="121.663" width="15.208" height="15.208"/>
<rect x="207.335" y="335.588" width="64.887" height="15.208"/>
<rect x="207.335" y="405.545" width="64.887" height="15.208"/>
<rect x="207.335" y="370.566" width="64.887" height="15.208"/>
<g>
</g>
<g>
</g>
<g>
</g>
<g>
</g>
<g>
</g>
<g>
</g>
<g>
</g>
<g>
</g>
<g>
</g>
<g>
</g>
<g>
</g>
<g>
</g>
<g>
</g>
<g>
</g>
<g>
</g>
</svg>
