<?xml version="1.0" encoding="iso-8859-1"?>
<!-- Generator: Adobe Illustrator 19.0.0, SVG Export Plug-In . SVG Version: 6.00 Build 0)  -->
<svg version="1.1" id="Layer_1" xmlns="http://www.w3.org/2000/svg" xmlns:xlink="http://www.w3.org/1999/xlink" x="0px" y="0px"
	 viewBox="0 0 508.1 508.1" style="enable-background:new 0 0 508.1 508.1;" xml:space="preserve">
<path style="fill:#FFD15C;" d="M452.25,242.3c-26.4-2.5-45.8-26.2-45.8-52.7v2.2c0,35-35.4,61.7-72.3,46.4
	c-18.1-7.5-29.3-26-29.3-45.6v-0.8c0,29.7-25.5,53.4-55.8,50.5c-26.4-2.5-45.8-26.2-45.8-52.7v2.2c0,35-35.4,61.7-72.3,46.4
	c-18.1-7.5-29.3-26-29.3-45.6v-14.1l0,0v13.3c0,29.7-25.5,53.4-55.8,50.6c-2.2-0.2-4.2-0.8-6.3-1.3v267h426.5V241.7
	C461.65,242.5,457.05,242.7,452.25,242.3z"/>
<rect x="39.55" style="fill:#CDD6E0;" width="428.6" height="56.6"/>
<polygon style="fill:#F2F2F2;" points="39.55,56.6 0.05,149.6 101.65,149.6 125.35,56.6 "/>
<polygon style="fill:#FF7058;" points="125.35,56.6 101.65,149.6 203.25,149.6 211.15,56.6 "/>
<polygon style="fill:#F2F2F2;" points="296.95,56.6 211.15,56.6 203.25,149.6 304.85,149.6 "/>
<polygon style="fill:#FF7058;" points="382.75,56.6 296.95,56.6 304.85,149.6 406.45,149.6 "/>
<polygon style="fill:#F2F2F2;" points="468.55,56.6 382.75,56.6 406.45,149.6 508.05,149.6 "/>
<g>
	<path style="fill:#FFFFFF;" d="M366.55,307h-8.3c-34.8,0-62.9,28.2-62.9,62.9v138h134.2V370C429.55,335.2,401.35,307,366.55,307z"
		/>
	<rect x="76.05" y="355.3" style="fill:#FFFFFF;" width="170.3" height="104.5"/>
</g>
<rect x="87.35" y="366.6" style="fill:#84DBFF;" width="147.7" height="81.9"/>
<path style="fill:#F8B64C;" d="M39.55,188.6v63.2c3.6,1,7.4,1.4,11.3,1.4c14,0,26.7-5.7,35.9-14.9s14.9-21.9,14.9-35.9
	c0,28,22.8,50.8,50.8,50.8s50.8-22.8,50.8-50.8c0,28,22.8,50.8,50.8,50.8s50.8-22.8,50.8-50.8c0,28,22.8,50.8,50.8,50.8
	s50.8-22.8,50.8-50.8c0,28,22.8,50.8,50.8,50.8c3,0,5.9-0.3,8.8-0.8v-63.7H39.55V188.6z"/>
<g>
	<path style="fill:#F1543F;" d="M304.85,149.6L304.85,149.6v42.9c0,19.6,11.2,38.1,29.3,45.6c36.9,15.4,72.3-11.4,72.3-46.4v-42.1
		H304.85z"/>
	<path style="fill:#F1543F;" d="M101.65,149.6v42.9c0,19.6,11.2,38.1,29.3,45.6c36.9,15.4,72.3-11.4,72.3-46.4v-42.1H101.65
		L101.65,149.6z"/>
</g>
<g>
	<path style="fill:#CDD6E0;" d="M406.45,149.6v40c0,26.5,19.4,50.2,45.8,52.7c30.3,2.9,55.8-20.9,55.8-50.6v-42.1H406.45z"/>
	<path style="fill:#CDD6E0;" d="M203.25,189.5c0,26.5,19.4,50.2,45.8,52.7c30.3,2.9,55.8-20.9,55.8-50.6v-42.1h-101.6V189.5z"/>
	<path style="fill:#CDD6E0;" d="M0.05,189.5c0,26.5,19.4,50.2,45.8,52.7c30.3,2.9,55.8-20.9,55.8-50.6v-42.1H0.05V189.5z"/>
</g>
<g>
</g>
<g>
</g>
<g>
</g>
<g>
</g>
<g>
</g>
<g>
</g>
<g>
</g>
<g>
</g>
<g>
</g>
<g>
</g>
<g>
</g>
<g>
</g>
<g>
</g>
<g>
</g>
<g>
</g>
</svg>
