<?xml version="1.0" encoding="iso-8859-1"?>
<!-- Generator: Adobe Illustrator 19.0.0, SVG Export Plug-In . SVG Version: 6.00 Build 0)  -->
<svg version="1.1" id="Layer_1" xmlns="http://www.w3.org/2000/svg" xmlns:xlink="http://www.w3.org/1999/xlink" x="0px" y="0px"
	 viewBox="0 0 512 512" style="enable-background:new 0 0 512 512;" xml:space="preserve">
<polygon style="fill:#FFFFFF;" points="308.687,400.984 241.917,96.098 166.112,95.037 97.689,127.685 164.459,432.569 "/>
<polygon style="fill:#78B9EB;" points="308.687,400.984 241.917,96.098 216.037,84.103 197.54,105.817 264.31,410.701 "/>
<polygon style="fill:#C9E3F7;" points="208.837,422.85 142.067,117.966 116.187,105.97 97.689,127.685 164.459,432.569 "/>
<polygon style="fill:#FFD6A0;" points="241.917,96.098 147.693,10.932 97.689,127.685 "/>
<polyline style="fill:#FFEFD9;" points="147.693,10.932 97.689,127.685 169.803,111.891 "/>
<polygon style="fill:#3C5D76;" points="195.123,53.802 147.693,10.932 122.522,69.702 "/>
<polygon style="fill:#AED5F3;" points="266.665,415.462 266.665,103.352 340.488,86.097 414.311,103.352 414.311,415.462 "/>
<polygon style="fill:#E9F4FC;" points="266.665,415.462 266.665,103.352 289.379,86.097 312.094,103.352 312.094,415.462 "/>
<polygon style="fill:#5A8BB0;" points="368.881,415.462 368.881,103.352 391.596,86.097 414.311,103.352 414.311,415.462 "/>
<polygon style="fill:#FFEFD9;" points="266.665,103.352 340.488,0 414.311,103.352 "/>
<polyline style="fill:#FFD6A0;" points="340.488,0 414.311,103.352 340.488,103.352 "/>
<polygon style="fill:#3C5D76;" points="303.327,52.025 340.488,0 377.649,52.025 "/>
<path style="fill:#AED5F3;" d="M414.311,512H119.018V228.065h295.293V512z"/>
<path style="fill:#78B9EB;" d="M414.311,512H266.665V228.065h147.646V512z"/>
<g>
	<circle style="fill:#3C5D76;" cx="226.91" cy="409.787" r="22.715"/>
	<circle style="fill:#3C5D76;" cx="306.412" cy="409.787" r="22.715"/>
	<circle style="fill:#3C5D76;" cx="226.91" cy="330.285" r="22.715"/>
	<circle style="fill:#3C5D76;" cx="306.412" cy="330.285" r="22.715"/>
</g>
<g>
</g>
<g>
</g>
<g>
</g>
<g>
</g>
<g>
</g>
<g>
</g>
<g>
</g>
<g>
</g>
<g>
</g>
<g>
</g>
<g>
</g>
<g>
</g>
<g>
</g>
<g>
</g>
<g>
</g>
</svg>
